<svg xmlns="http://www.w3.org/2000/svg" viewBox="0 0 55.17 74.8"><g id="Layer_2" data-name="Layer 2"><g id="Layer_1-2" data-name="Layer 1"><g id="mostlycloudy"><path d="M39.43,5.85A1.23,1.23,0,0,1,38.2,4.62V1.23a1.23,1.23,0,1,1,2.45,0V4.62A1.23,1.23,0,0,1,39.43,5.85Z" style="fill:#f5a714"/><path d="M53.94,17H50.55a1.23,1.23,0,1,1,0-2.45h3.39a1.23,1.23,0,1,1,0,2.45Z" style="fill:#f5a714"/><path d="M47.64,9.06a1.16,1.16,0,0,1-.86-.36,1.22,1.22,0,0,1,0-1.73l2.39-2.4a1.23,1.23,0,0,1,1.74,0,1.25,1.25,0,0,1,0,1.74L48.51,8.7A1.18,1.18,0,0,1,47.64,9.06Z" style="fill:#f5a714"/><path d="M50,27.37a1.24,1.24,0,0,1-.87-.36l-2.39-2.4a1.23,1.23,0,1,1,1.73-1.74l2.4,2.4a1.25,1.25,0,0,1,0,1.74A1.24,1.24,0,0,1,50,27.37Z" style="fill:#f5a714"/><path d="M31.59,9.23a1.22,1.22,0,0,1-.87-.36l-2.4-2.4a1.23,1.23,0,1,1,1.74-1.73l2.4,2.4a1.23,1.23,0,0,1-.87,2.09Z" style="fill:#f5a714"/><path d="M41,8A7.64,7.64,0,0,0,32,14.1a6.47,6.47,0,0,0-.11,1.06,1,1,0,0,0,.9,1.05c1.05.13,1-1,1.17-1.74a5.66,5.66,0,1,1,11.14,2,4.91,4.91,0,0,1-.71,2,7.19,7.19,0,0,1-2,1.8.8.8,0,0,0,.42,1.41c.82.18,1.49-.43,2.09-1a6.93,6.93,0,0,0,1.65-2.38,6.46,6.46,0,0,0,.47-1.49A7.66,7.66,0,0,0,41,8Z" style="fill:#f5a714"/><path d="M17.92,74.8a1.43,1.43,0,0,1-.52-.11A1.33,1.33,0,0,1,16.7,73L26,51a1.33,1.33,0,1,1,2.45,1L19.14,74A1.33,1.33,0,0,1,17.92,74.8Z" style="fill:#1b86d0"/><path d="M26.49,69a1.33,1.33,0,0,1-1.23-1.83l6.59-16a1.34,1.34,0,0,1,1.73-.72,1.32,1.32,0,0,1,.72,1.73l-6.59,16A1.33,1.33,0,0,1,26.49,69Z" style="fill:#1b86d0"/><path d="M14.39,69a1.32,1.32,0,0,1-1.22-1.83l6.58-16a1.34,1.34,0,0,1,1.73-.72,1.32,1.32,0,0,1,.72,1.73l-6.59,16A1.32,1.32,0,0,1,14.39,69Z" style="fill:#1b86d0"/><path d="M44.22,34.35a13.37,13.37,0,0,0-24.3-9.8,9.15,9.15,0,0,0-3.65-.76A9.27,9.27,0,0,0,7,33.06v.31a10.18,10.18,0,0,0,3.18,19.86h5c1.6,0,1.51-2.65,0-2.65h-5A7.54,7.54,0,0,1,8.71,35.65L10,35.4l-.21-1.26a7,7,0,0,1-.09-1.08,6.59,6.59,0,0,1,10.07-5.63l1.21.74.66-1.25a10.72,10.72,0,0,1,20.2,5,11,11,0,0,1-.52,3.32l-.6,1.85,2-.13.32,0a6.83,6.83,0,1,1,0,13.66H37.32a1.33,1.33,0,1,0,0,2.65h5.73a9.48,9.48,0,0,0,1.17-18.88Z" style="fill:#fff"/></g></g></g></svg>