<svg xmlns="http://www.w3.org/2000/svg" viewBox="0 0 418.83 459.13"><g id="Layer_2" data-name="Layer 2"><g id="Layer_1-2" data-name="Layer 1"><path d="M310.58,352.28H300a10,10,0,0,1,0-20h10.54a50,50,0,0,0-.56-99.95c-1.18,0-2.44.08-3.51.15a10,10,0,0,1-10.67-9.33,86,86,0,0,0-159.46-38.94,10,10,0,0,1-15.64,1.87,27.61,27.61,0,0,0-44.26,31.84,10,10,0,0,1-8.54,14.49,49.91,49.91,0,0,0,1.82,99.78H80a10,10,0,0,1,0,20H69.72A69.93,69.93,0,0,1,54.28,214.11a47.64,47.64,0,0,1,71.21-49.48,106,106,0,0,1,189.24,47.86,70,70,0,0,1-4.05,139.79Z" style="fill:#fff"/><path d="M96,446.27A10,10,0,0,1,89,429.21l43-43H106a10,10,0,0,1-6.88-17.25l63-59.83a10,10,0,0,1,13.77,14.5l-44.84,42.58H156a10,10,0,0,1,7.08,17.06l-60,60.09A10,10,0,0,1,96,446.27Z" style="fill:#fff"/><path d="M198,411.13a10,10,0,0,1-7.07-17.08l42.91-42.86H208A10,10,0,0,1,201.05,334l63-60.12a10,10,0,1,1,13.81,14.47l-44.94,42.89h25A10,10,0,0,1,265,348.26L205,408.2A10,10,0,0,1,198,411.13Z" style="fill:#fff"/><path d="M147,459.13a10,10,0,0,1-7.07-17.08l25-25a10,10,0,0,1,14.14,14.14l-25,25A10,10,0,0,1,147,459.13Z" style="fill:#fff"/><path d="M56,426.13a10,10,0,0,1-7.07-17.08l15.79-15.77a10,10,0,0,1,14.14,14.14L63,423.2A10,10,0,0,1,56,426.13Z" style="fill:#fff"/><path d="M235,440.13a10,10,0,0,1-7.07-17.08l52-51.94A10,10,0,0,1,294,385.26L242,437.2A10,10,0,0,1,235,440.13Z" style="fill:#fff"/><path d="M356,218a10,10,0,0,1-3-19.55,91.68,91.68,0,0,0,36.82-22A111.34,111.34,0,0,1,316.69,20.46,91.29,91.29,0,0,0,235,104.34a10,10,0,0,1-19.94-1.5A111.25,111.25,0,0,1,326,0c3,0,6,.12,9,.37a10,10,0,0,1,7.38,15.72,91.26,91.26,0,0,0,67.26,143.36A10,10,0,0,1,417,175.17a111.93,111.93,0,0,1-58.07,42.35A9.92,9.92,0,0,1,356,218Z" style="fill:#fff"/></g></g></svg>