<svg xmlns="http://www.w3.org/2000/svg" viewBox="0 0 423.62 479.33"><g id="Layer_2" data-name="Layer 2"><g id="Layer_1-2" data-name="Layer 1"><path d="M114.71,397.12a10,10,0,0,1-5-18.64l60.51-35.2a10,10,0,1,1,10,17.28l-60.5,35.2A10,10,0,0,1,114.71,397.12Z" style="fill:#fff"/><path d="M175.71,396.22a9.9,9.9,0,0,1-4.77-1.22l-61.52-33.39A10,10,0,1,1,119,344l61.52,33.39a10,10,0,0,1-4.77,18.79Z" style="fill:#fff"/><path d="M144.94,414.39h0a10.19,10.19,0,0,1-10-10.24l0-68.79a10,10,0,0,1,10-10h0a9.88,9.88,0,0,1,10,9.86l0,69A10.14,10.14,0,0,1,144.94,414.39Z" style="fill:#fff"/><path d="M209.71,363.12a10,10,0,0,1-5-18.64l60.51-35.2a10,10,0,1,1,10.05,17.28l-60.5,35.2A10,10,0,0,1,209.71,363.12Z" style="fill:#fff"/><path d="M270.71,362.22a9.9,9.9,0,0,1-4.77-1.22l-61.52-33.39A10,10,0,1,1,214,310l61.52,33.39a10,10,0,0,1-4.77,18.79Z" style="fill:#fff"/><path d="M239.94,380.39h0a10.19,10.19,0,0,1-10-10.24l0-68.79a10,10,0,0,1,10-10h0a9.88,9.88,0,0,1,10,9.86l0,69A10.14,10.14,0,0,1,239.94,380.39Z" style="fill:#fff"/><path d="M128,479.33a10,10,0,0,1-7.07-17.08l25-25a10,10,0,0,1,14.14,14.14l-25,25A10,10,0,0,1,128,479.33Z" style="fill:#fff"/><path d="M79,446.33a10,10,0,0,1-7.07-17.08l15.79-15.77a10,10,0,0,1,14.14,14.14L86,443.4A10,10,0,0,1,79,446.33Z" style="fill:#fff"/><path d="M194,431.33a10,10,0,0,1-7.07-17.08l15.79-15.77a10,10,0,0,1,14.14,14.14L201,428.4A10,10,0,0,1,194,431.33Z" style="fill:#fff"/><path d="M235,449.33a10,10,0,0,1-7.07-17.08l52-51.94A10,10,0,0,1,294,394.46L242,446.4A10,10,0,0,1,235,449.33Z" style="fill:#fff"/><path d="M311.08,361.48H301a10,10,0,0,1,0-20h10a49.77,49.77,0,0,0,49.22-50,50.12,50.12,0,0,0-50.14-50c-1.26,0-2.65.09-3.58.15a10,10,0,0,1-10.67-9.33,86.06,86.06,0,0,0-159.5-38.94,10,10,0,0,1-15.64,1.87,27.61,27.61,0,0,0-44.27,31.84,10,10,0,0,1-8.54,14.49,49.91,49.91,0,0,0,1.81,99.78H82a10,10,0,0,1,0,20H69.72A69.93,69.93,0,0,1,54.28,223.31a47.65,47.65,0,0,1,71.23-49.48A105.2,105.2,0,0,1,210,131.92a106.26,106.26,0,0,1,104.8,89.77,70.06,70.06,0,0,1,45.32,119.07,69.23,69.23,0,0,1-48.93,20.72Z" style="fill:#fff"/><path d="M360.77,218a10,10,0,0,1-3-19.55,91.68,91.68,0,0,0,36.82-22A111.34,111.34,0,0,1,321.49,20.46a91.29,91.29,0,0,0-81.74,83.88,10,10,0,0,1-19.94-1.5A111.25,111.25,0,0,1,330.74,0c3,0,6,.12,9.05.37a10,10,0,0,1,7.38,15.72,91.26,91.26,0,0,0,67.26,143.36,10,10,0,0,1,7.38,15.72,111.93,111.93,0,0,1-58.07,42.35A9.92,9.92,0,0,1,360.77,218Z" style="fill:#fff"/></g></g></svg>